<?xml version="1.0" encoding="utf-8"?>
<!DOCTYPE svg PUBLIC "-//W3C//DTD SVG 1.0//EN" "http://www.w3.org/TR/2001/REC-SVG-20010904/DTD/svg10.dtd">
<svg version="1.0" xmlns="http://www.w3.org/2000/svg" width="431px" height="422px" viewBox="0 0 431 422" preserveAspectRatio="xMidYMid meet">
 <g fill="#000000">
  <path d="M0 211 l0 -211 215.50 0 215.50 0 0 211 0 211 -215.50 0 -215.50 0 0 -211z m230 193.95 c40.25 -4.05 74.65 -18.20 106.90 -43.90 6.25 -5 21.90 -20.40 26.90 -26.55 20.90 -25.45 34.20 -52.35 41.40 -83.50 10.30 -44.65 4.10 -91.55 -17.70 -133.30 -38.60 -74.10 -120.90 -116.70 -202.25 -104.70 -54.10 8 -102.30 37.65 -133.80 82.40 -31.15 44.15 -42.80 99.20 -32.15 151.50 7.10 34.80 23.35 66.75 47.60 93.70 l4.35 4.85 0.25 -4.85 0.25 -4.85 -1.60 -2 c-0.85 -1.10 -3.20 -3.90 -5.15 -6.25 -16.30 -19.35 -29 -44.55 -35.95 -71.50 -4.60 -17.70 -6.65 -34.80 -6.60 -55.20 0 -21.65 2 -35.05 7.85 -52.30 17.45 -51.30 48.35 -88.60 91.10 -110 22.65 -11.30 48.55 -18.25 74.85 -20.05 10.05 -0.70 33.75 -0.30 42.75 0.75 30.50 3.50 60.35 15.25 87.25 34.45 45.35 32.35 71.35 80.15 76.25 140.10 0.75 9.35 0.60 29.05 -0.25 36.25 -1.65 13.50 -4.65 26.25 -9 38.20 -14.80 40.85 -40.30 74.15 -74.50 97.25 -47.60 32.15 -99.70 41.25 -154.25 26.85 -6.20 -1.65 -19.10 -6 -21.50 -7.30 -0.75 -0.40 -1.45 -0.30 -3.10 0.55 -1.20 0.60 -3.40 1.50 -4.90 1.95 l-2.70 0.80 5.70 2.30 c22.55 9.15 43 13.70 67.25 15.10 4.45 0.25 19.30 -0.20 24.75 -0.75z m-99.55 -24.50 c2.85 -1.05 5.85 -2.95 9.55 -5.95 1.25 -1.05 2.75 -2.10 3.40 -2.45 0.60 -0.30 1.10 -0.90 1.10 -1.30 0 -1.05 1.45 -1.65 5.85 -2.55 2.15 -0.45 4.70 -1.20 5.65 -1.70 l1.70 -0.90 -2.10 -0.35 c-1.95 -0.30 -2.10 -0.45 -2.10 -1.95 0 -1.55 1.35 -3.35 2.80 -3.85 0.35 -0.10 3.75 -3.30 7.65 -7.05 6.40 -6.20 7.05 -7 6.55 -7.90 -0.45 -0.85 -0.70 -0.95 -1.25 -0.50 -0.40 0.35 -1.75 0.50 -3 0.40 -2.05 -0.15 -2.25 -0.05 -2.25 0.95 0 2.10 -4.15 5.50 -13.25 10.95 -1.65 0.95 -1.80 1.15 -0.85 1.20 0.95 0 1.10 0.25 1.10 1.90 0 1.70 -0.35 2.30 -3.20 5.10 -1.75 1.75 -3.50 3.30 -3.90 3.50 -0.35 0.20 -2.45 0.55 -4.60 0.70 -4.75 0.40 -6.80 1.25 -3.15 1.30 l2.40 0 -0.15 2.30 c-0.15 2.25 -0.20 2.35 -3.40 4.30 -2.95 1.75 -3.50 1.95 -6.25 1.80 l-3 -0.15 -0.15 -2.65 c-0.10 -1.55 0.10 -3.05 0.45 -3.50 0.30 -0.45 -0.35 0.10 -1.50 1.25 -1.10 1.15 -2.05 2.50 -2.05 2.95 0 0.80 4.20 5.20 4.95 5.20 0.15 0 1.50 -0.45 3 -1.05z m74.05 0.30 c0.35 -0.40 1.80 -1.30 3.25 -2.05 1.45 -0.70 3.10 -1.75 3.60 -2.30 0.90 -1.05 0.90 -1.05 -0.30 -0.40 -1.55 0.80 -6.50 0.40 -7.10 -0.55 -0.75 -1.20 -0.50 -3.60 0.55 -5.35 0.55 -0.90 1 -2.05 1 -2.55 0 -0.50 0.40 -1.45 0.90 -2.10 0.45 -0.65 1.15 -1.75 1.50 -2.40 0.40 -0.65 1.15 -2 1.70 -3 0.55 -1 1.35 -2.25 1.70 -2.80 0.40 -0.55 0.70 -1.40 0.70 -1.85 0 -1.20 1.90 -1.90 5.25 -1.90 1.90 0 2.70 -0.20 2.95 -0.75 0.20 -0.50 -0.05 -0.75 -0.70 -0.75 -0.55 0 -1 -0.20 -1 -0.50 0 -0.25 -0.35 -0.50 -0.75 -0.50 -1.25 0 -0.95 -3.20 0.50 -4.90 0.70 -0.85 1.25 -1.70 1.25 -2 0 -0.25 0.45 -0.60 1 -0.75 1.10 -0.30 1.40 -2.55 0.45 -3.10 -0.75 -0.50 -2.40 1.20 -6.80 7.05 l-3.90 5.15 -2.70 0.15 c-1.60 0.10 -2.80 0.40 -2.95 0.80 -0.10 0.30 0.15 0.60 0.55 0.60 1.70 0 1.90 4.85 0.30 6.30 -0.60 0.50 -1.95 2.20 -3 3.70 -1 1.50 -2.60 3.50 -3.45 4.40 l-1.55 1.60 1.30 0 c1.30 0 1.35 0.10 1.10 2.40 -0.10 1.30 -0.50 3.10 -0.90 4 -0.60 1.45 -0.55 1.80 0.25 3.35 0.85 1.50 1.20 1.75 2.80 1.75 1.05 0 2.15 -0.35 2.50 -0.75z m49.05 -1.05 c2.55 -1.35 4.60 -3.05 7.75 -6.30 2.35 -2.50 4.15 -4.60 4 -4.75 -0.10 -0.15 -0.85 0.35 -1.65 1.05 -6 5.65 -14.15 7.50 -17.45 3.95 -3.40 -3.70 -2.70 -16.50 1.60 -28.05 2.90 -7.80 6.90 -14.70 11.15 -19.25 2.90 -3.15 4.35 -3.85 7.75 -3.85 2.55 0 2.80 0.10 3.10 1.25 0.70 2.85 -0.10 6.60 -2.50 11.60 -1.30 2.70 -3.05 5.95 -3.85 7.30 -2.05 3.30 -0.80 2.95 2.80 -0.80 5.55 -5.80 7.90 -11.95 6.45 -16.90 -1.95 -6.55 -5.30 -8.05 -11.15 -4.90 -13.40 7.10 -26.15 37.05 -22.30 52.20 1.40 5.45 5.05 9.25 8.90 9.25 1.30 0 3.15 -0.60 5.40 -1.80z m-139.95 -5.20 c-0.15 -3.50 -0.30 -4.10 -1.25 -4.60 -3.10 -1.60 -15.30 -10.25 -20.60 -14.60 l-2.50 -2.05 -4.75 0.25 -4.75 0.25 6.50 5.45 c7.10 5.90 15.65 12.15 22.60 16.50 2.40 1.50 4.50 2.75 4.65 2.80 0.15 0 0.20 -1.80 0.10 -4z m73.55 1.35 c1.45 -0.70 3.05 -1.60 3.60 -2.05 0.95 -0.75 0.90 -0.75 -1.25 -0.80 -1.30 0 -2.55 -0.25 -2.90 -0.60 -0.80 -0.80 -0.75 -3.75 0.05 -4.25 0.35 -0.20 1.20 -1.15 1.80 -2.05 0.65 -0.95 1.70 -2.25 2.35 -2.95 0.65 -0.70 1.20 -1.60 1.20 -1.95 0 -0.40 0.25 -0.70 0.50 -0.70 0.80 0 3.55 -2.65 4.05 -3.85 0.20 -0.60 0.90 -1.15 1.55 -1.25 1.70 -0.25 1.90 -3 0.30 -4.10 -1.60 -1.15 -2.50 -1 -6.05 0.80 -3.05 1.60 -3.10 1.65 -1.45 1.80 1.40 0.15 1.60 0.35 1.60 1.65 0 1.20 -0.80 2.30 -4.15 5.60 -4.05 3.95 -7.35 8.40 -8.10 10.90 -0.20 0.65 -0.60 1.45 -0.85 1.80 -0.65 0.80 0 2.65 0.90 2.65 0.40 0 0.70 0.25 0.70 0.55 0 0.85 3.05 0.25 6.15 -1.20z m-21.65 -5.10 c1.20 -1 2.55 -2.30 3.05 -2.95 0.55 -0.70 1.90 -1.70 3.10 -2.25 1.15 -0.60 2.90 -1.75 3.85 -2.55 l1.75 -1.45 -1.85 -0.05 c-1.85 0 -1.90 -0.05 -1.90 -1.80 0 -1.45 0.40 -2.25 1.90 -3.75 1 -1.10 2.15 -1.95 2.50 -1.95 0.35 0 1.10 -0.80 1.65 -1.75 0.55 -0.95 1.45 -1.85 2 -2 0.50 -0.20 0.95 -0.75 0.95 -1.30 0 -0.55 0.35 -0.95 0.85 -0.95 1 0 3.15 -1.90 3.15 -2.85 0 -0.35 0.20 -0.65 0.45 -0.65 0.65 0 8.25 -6.50 8.45 -7.20 0.05 -0.30 -0.30 -0.80 -0.85 -1.15 -0.80 -0.50 -1.20 -0.45 -2.20 0.35 -0.70 0.55 -1.45 1 -1.70 1 -0.50 0 -11.75 10.35 -12.35 11.35 -0.60 1.05 -2.20 2.65 -2.70 2.65 -0.25 0 -1.40 1.15 -2.65 2.60 -1.20 1.40 -2.75 3.15 -3.45 3.90 -0.70 0.75 -2.10 2.25 -3.10 3.35 -1.20 1.35 -2.75 2.35 -4.50 2.95 -2.65 0.95 -2.65 0.95 -0.95 1.10 l1.70 0.15 -0.35 3.50 c-0.35 4.10 0.05 4.35 3.20 1.70z m-33.80 -0.30 c0.55 -0.50 -3.10 0 -4.20 0.60 -0.40 0.20 0.25 0.25 1.50 0.10 1.25 -0.15 2.45 -0.45 2.70 -0.70z m156.85 -5.80 c1.05 -1.15 1.10 -1.25 0.20 -0.90 -1.65 0.65 -3.65 0.90 -4.95 0.55 -1.65 -0.40 -2.30 -2.75 -2.30 -8.45 0 -4.10 0.10 -4.50 1.55 -6.50 l1.55 -2.10 -1.55 -0.15 -1.55 -0.15 0 -3.25 c0 -3.45 2.30 -15.90 4.15 -22.45 l1.15 -4 2.20 0 2.25 0 0.15 2.80 c0.15 2.45 -0.60 8.15 -1.70 13.20 -0.20 0.85 -0.20 1.35 0 1.20 0.65 -0.60 2.80 -12 2.80 -14.95 0 -3.30 -1 -6.35 -2.25 -6.80 -1 -0.40 -2.50 0.90 -4.35 3.80 -3.15 4.90 -8.40 25.05 -8.40 32.25 0 4.20 1.90 14.15 3.10 16.30 1.90 3.35 4.65 3.25 7.95 -0.40z m-148.30 -3.15 l2 -0.90 -1.60 -0.05 c-2.10 -0.05 -3.15 -1.20 -3.15 -3.40 0 -1.55 0.45 -2.25 3.40 -5.10 3.45 -3.40 8.25 -6.80 13.10 -9.35 2.25 -1.20 3.35 -1.45 6.15 -1.45 1.85 0 3.35 -0.10 3.35 -0.25 0 -0.15 -1.15 -0.80 -2.50 -1.45 -2 -1 -2.70 -1.15 -3.60 -0.70 -0.65 0.35 -2.05 0.85 -3.15 1.20 -3.80 1.15 -11 5 -12.80 6.85 -1 1 -2.85 2.75 -4.15 3.85 -1.25 1.10 -2.30 2.35 -2.30 2.80 0 0.45 -0.70 1.70 -1.50 2.75 -2 2.45 -1.90 4.50 0.25 5.75 1.70 1 3.40 0.85 6.50 -0.55z m165.10 -3.75 c1.45 -1 3.10 -3.80 4.45 -7.45 1 -2.80 1.20 -3.05 2.70 -3.20 1.30 -0.15 2 0.20 3.50 1.65 2.15 2.10 2.90 2 5.15 -0.70 1.20 -1.45 3.70 -7.85 3.25 -8.35 -0.15 -0.10 -0.50 0.75 -0.85 1.90 -1.05 3.55 -1.80 4.40 -3.95 4.40 -3.40 0 -3.35 0.20 -3.50 -11.60 -0.15 -8.80 -0.35 -10.80 -0.95 -11.50 -1.05 -1.15 -1.80 -1.15 -2.90 0.10 -0.75 0.85 -0.90 2.30 -1.10 11.10 -0.25 10.75 -1.10 15.90 -3.20 19.30 -0.80 1.40 -1.20 1.60 -3.15 1.60 -3.25 0 -3.45 -0.80 -3.40 -13.50 0.05 -8.90 -0.05 -10.60 -0.75 -11.25 -0.65 -0.70 -0.90 -0.70 -1.85 -0.10 -1 0.70 -1.05 1.25 -1.30 9.90 -0.25 7.25 -0.45 9.60 -1.15 11.10 l-0.85 1.85 1.75 0 c0.95 0 1.75 0.25 1.75 0.50 0 0.60 4.30 5 4.90 5 0.20 0 0.85 -0.35 1.45 -0.75z m-183.35 -1.50 c1.40 -0.70 2.50 -1.35 2.50 -1.40 0 -0.10 -1.50 -0.15 -3.35 -0.15 l-3.40 0.05 -0.15 -2.45 c-0.10 -1.35 0.05 -2.60 0.30 -2.75 0.25 -0.15 1.90 -2.65 3.65 -5.50 1.75 -2.85 3.60 -5.30 4.05 -5.45 0.50 -0.10 0.90 -0.55 0.90 -0.90 0 -0.40 0.35 -0.70 0.75 -0.70 1.10 0 0.90 -1.40 -0.25 -2.10 -0.55 -0.35 -1 -0.85 -1 -1.05 0 -1.05 -2.15 -3.35 -3.10 -3.35 -1.75 0 -10.85 -3.70 -11.50 -4.70 -0.75 -1.10 -0.40 -3.60 0.60 -4.45 0.55 -0.45 1.15 -0.85 1.30 -0.85 0.40 0 7.35 -5.20 9.85 -7.35 2.55 -2.25 5.60 -2.30 9.85 -0.15 4.75 2.40 16.15 6.50 18.05 6.50 1.50 0 1.10 -0.60 -2.20 -3.25 -3.45 -2.80 -10.20 -6.55 -15.70 -8.80 -2.15 -0.85 -5.15 -2.10 -6.65 -2.80 -2.85 -1.35 -6.95 -2.80 -13.65 -4.90 -2.90 -0.90 -4.20 -1.10 -5.10 -0.75 -2.40 0.90 -1.60 1.70 5.65 5.55 4.35 2.35 4.60 2.55 4.60 4.15 0 1.95 -0.50 2.50 -7.50 7.95 -5 3.90 -5.40 4.10 -7.75 4.10 -1.35 0 -3.15 -0.20 -4 -0.45 -1.35 -0.40 -1.45 -0.40 -0.85 0.35 0.40 0.45 0.60 1.65 0.50 2.90 -0.15 1.85 -0.40 2.35 -1.90 3.35 -0.95 0.65 -2.20 1.55 -2.75 2 -0.55 0.50 -2.05 1.60 -3.25 2.45 -1.25 0.85 -3.90 3.10 -5.90 5 -3.15 2.90 -3.70 3.70 -3.95 5.40 -0.20 1.60 -0.05 2.20 0.80 2.95 1.05 0.95 1.10 0.95 3.20 -0.10 2.95 -1.55 7.85 -5.55 7.85 -6.40 0 -0.40 0.30 -0.70 0.65 -0.70 0.75 -0.05 4.60 -3.60 5 -4.70 0.20 -0.45 0.65 -0.80 1.10 -0.80 0.40 0 0.75 -0.30 0.75 -0.60 0 -0.35 0.75 -1.40 1.70 -2.25 2.50 -2.50 4.90 -2.65 10.80 -0.65 2.60 0.85 6.10 1.85 7.75 2.20 2.95 0.65 3 0.65 3.15 2.50 0.15 1.65 -0.10 2.10 -2.10 4 -1.25 1.20 -2.30 2.40 -2.30 2.65 0 0.30 -0.50 1.05 -1.10 1.70 -1.70 1.85 -2.70 3.50 -4.15 6.95 -1.65 3.90 -1.70 5.45 -0.30 7.45 1 1.40 1.40 1.55 3.60 1.55 1.65 0 3.30 -0.40 4.95 -1.25z m167.45 -20.75 c0 -0.45 -0.20 -0.40 -0.45 0.25 -0.25 0.55 -0.45 1.35 -0.45 1.75 0 0.45 0.20 0.40 0.45 -0.25 0.25 -0.55 0.45 -1.35 0.45 -1.75z m47 1.25 c2.25 -1.15 5.40 -5.10 6.55 -8.20 1.35 -3.50 1.85 -10.30 1.05 -14.10 -1 -4.85 -3.30 -8.25 -6.70 -10 -1.90 -1 -3 -0.85 -4.20 0.65 -0.45 0.50 -0.15 0.65 1.50 0.65 2 0 2.15 0.10 3.45 2.55 1.95 3.55 3.10 10.60 2.75 16.95 -0.35 7.55 -1.60 9.75 -5.60 9.75 -2.35 0 -3.95 -1.60 -4.95 -5.05 -0.90 -2.95 -1.10 -15.75 -0.35 -19.05 0.45 -1.85 0.40 -1.90 -1 -1.90 -1.40 0 -1.45 -0.05 -1.45 -2.70 0 -4.95 -1.05 -13.05 -1.90 -14.80 -1.20 -2.50 -2.30 -2.30 -2.50 0.50 -0.25 3.20 0.75 15 2 23.50 1.15 7.80 1.40 12.95 0.75 16.40 l-0.35 2.10 1.75 0 c1.15 0 2.20 0.40 2.90 1.05 1.05 1 3.60 2.40 4.50 2.45 0.20 0 1.05 -0.35 1.80 -0.75z m-113.60 -9.60 c0.80 -0.80 5.45 -5.15 10.40 -9.75 12.30 -11.35 27.20 -26.70 34.70 -35.75 1.85 -2.25 2.45 -2.65 3.90 -2.65 l1.65 0 0 -2.60 c0 -2.20 -0.10 -2.50 -0.65 -1.90 -0.40 0.40 -4.40 5.15 -9 10.50 -10.75 12.70 -25.80 27.50 -38.25 37.65 l-3.60 2.95 -9.85 -0.55 c-10.95 -0.65 -13.15 -0.90 -13.15 -1.55 0 -0.85 -13.70 -22.60 -14.70 -23.30 -0.55 -0.40 -3.95 -2.65 -7.55 -5.05 -8.45 -5.55 -15.05 -10.75 -22.50 -17.50 -6.95 -6.35 -7.30 -6.70 -7.70 -8.55 l-0.30 -1.40 -1.30 1.55 -1.35 1.50 6.50 5 c3.55 2.75 12.70 9.85 20.30 15.75 15.65 12.15 12.50 8.60 24.90 27.90 l5.10 7.85 9.15 0.55 c5.05 0.30 9.80 0.60 10.55 0.60 0.85 0.05 1.85 -0.40 2.75 -1.25z m-86.65 -0.35 c0.95 -1.50 0.65 -2.45 -1.05 -3.55 -1.20 -0.80 -1.35 -0.80 -2.60 0.10 -0.70 0.55 -1.35 1.45 -1.45 2 -0.40 2.55 3.65 3.65 5.10 1.45z m-0.10 -39.40 c-2.40 -2.55 -7.15 -8.10 -10.35 -12.10 -1.30 -1.60 -1.75 -1.85 -3.20 -1.70 l-1.65 0.15 4.40 4.70 c4.40 4.65 12.05 11.55 12.85 11.55 0.25 0 -0.70 -1.20 -2.05 -2.60z m87.50 -5.50 c0.15 -1.60 0.25 -1.65 2.90 -2 1.50 -0.20 4.30 -0.50 6.15 -0.70 1.90 -0.15 3.35 -0.40 3.20 -0.50 -0.65 -0.65 -24.55 1.80 -31.60 3.25 l-2 0.45 2.75 0.10 c1.50 0.05 5.10 0.30 8 0.50 2.90 0.15 6.40 0.35 7.85 0.40 2.55 0.10 2.60 0.10 2.75 -1.50z m60.65 -8.05 c4.95 -4.10 9.10 -7.55 9.20 -7.65 0.10 -0.10 -0.30 -2.15 -0.90 -4.60 -0.60 -2.40 -1.05 -5.40 -0.95 -6.60 l0.15 -2.15 4.95 -1.40 c2.75 -0.80 5.15 -1.60 5.35 -1.80 0.40 -0.40 4.20 -11 8.30 -23 l2.25 -6.65 -4.75 -6.35 c-2.55 -3.55 -4.95 -6.90 -5.30 -7.50 -0.55 -1.10 -0.90 -1.15 -5.80 -1.15 -2.85 0 -5.50 -0.15 -5.95 -0.30 -1.05 -0.40 -1 -2.45 0.15 -6.60 l0.95 -3.40 -2.80 0.20 -2.75 0.25 0.35 -3.95 c0.15 -2.20 0.45 -6.90 0.65 -10.50 l0.30 -6.60 -8.40 -8.15 c-12.75 -12.40 -16.45 -16.15 -22.80 -23.25 -13.15 -14.60 -27.05 -33.80 -27.80 -38.35 -0.30 -2.05 0.65 -6.55 3 -13.95 l1.70 -5.35 -4.05 1.50 c-2.20 0.85 -6.65 2.45 -9.80 3.55 l-5.75 2.05 -9.90 9.80 c-10.05 9.95 -28.10 28.80 -33.90 35.45 -2.70 3.10 -3.40 3.60 -4.80 3.60 l-1.60 0 -0.15 -4 -0.15 -4 -10.25 13.55 c-5.65 7.50 -13 17.20 -16.35 21.55 -5.30 7 -6.05 8.20 -5.85 9.60 0.20 1.60 1.20 17.90 1.20 19.75 0 0.90 -0.30 1.05 -2.15 1.05 -1.20 0 -2.45 -0.30 -2.80 -0.60 -0.55 -0.55 -0.60 -0.45 -0.40 0.35 1.05 3.55 1.40 5.80 1.25 7.55 l-0.15 1.95 -3.55 0.15 -3.55 0.15 -4.60 6.50 -4.60 6.50 4.80 14.45 c2.65 8 5.05 14.65 5.35 14.80 0.30 0.20 2.35 1.10 4.60 2 l4.05 1.65 0.15 2.05 c0.10 1.40 -0.15 2.60 -0.90 3.85 -0.55 0.95 -1 1.85 -0.90 1.90 0.10 0.05 2.85 -0.70 6.10 -1.70 4.40 -1.35 6.15 -2.10 6.70 -2.95 0.70 -1.05 0.60 -1.05 -2.45 0.40 -1.80 0.85 -4.05 1.50 -5.05 1.50 -1.85 0 -1.90 -0.05 -1.90 -1.90 0 -1.05 0.35 -2.35 0.75 -2.90 0.40 -0.50 0.75 -1.05 0.75 -1.25 0 -0.15 -2.40 -1.05 -5.30 -1.95 -3.45 -1.15 -5.55 -2.10 -6 -2.75 -1.05 -1.65 -8.70 -24.05 -8.70 -25.50 0 -1.55 1.10 -3.45 4.65 -8.25 2.65 -3.60 3.20 -3.85 8.45 -3.95 1.85 0 3.50 -0.25 3.65 -0.55 0.15 -0.25 -0.15 -1.35 -0.75 -2.45 -0.55 -1.10 -1 -2.80 -1 -3.80 0 -1.75 0 -1.75 2.15 -1.75 1.15 0 2.65 0.35 3.25 0.80 0.65 0.45 1.25 0.70 1.35 0.60 0.20 -0.20 -0.45 -10.20 -1.30 -19.65 -0.35 -4.35 -0.35 -6.40 0.05 -7.45 1.30 -3.45 13.85 -21.10 21.40 -30.10 2.55 -3.05 3.10 -3.45 4.80 -3.60 l1.95 -0.15 -0.30 3.15 -0.25 3.15 1.25 -1.50 c7.25 -8.60 17.20 -19.75 22.45 -25.25 10.55 -11.05 25.45 -24.80 28.65 -26.50 2.10 -1.10 10.25 -3.50 11.95 -3.50 l1.60 0 0 3.15 c0 1.70 -0.25 5.65 -0.50 8.80 l-0.45 5.65 4.45 5.85 c12.35 16.20 26.85 32.75 43.10 49.25 l10.35 10.55 0.05 4 c0 3.85 -0.70 14 -1.25 17.90 -0.25 1.75 -0.20 1.85 0.70 1.35 0.55 -0.25 1.80 -0.50 2.75 -0.50 1.80 0 1.80 0 1.80 2.20 0 1.25 -0.20 2.75 -0.45 3.40 -0.20 0.65 -0.55 1.75 -0.75 2.55 l-0.30 1.35 6.85 0 c3.80 0 7.15 0.20 7.45 0.40 0.30 0.20 2.40 3.10 4.60 6.45 2.80 4.15 4.10 6.60 4.10 7.55 0 2.50 -2.30 10.55 -5.20 18.30 -1.50 4.10 -2.85 7.50 -2.90 7.55 -0.15 0.10 -10.75 3.45 -12.75 4.05 -0.45 0.10 -0.40 0.80 0.15 2.80 0.35 1.45 0.70 3.50 0.70 4.55 0 1.80 -0.05 1.85 -1.80 1.85 l-1.80 0 1.55 1.95 c1.05 1.30 1.55 2.50 1.55 3.60 0 1.55 -0.60 2.20 -6.30 7.20 -4.40 3.85 -6.70 5.55 -7.75 5.65 -1.15 0.15 -1.45 0.40 -1.45 1.40 0 0.90 0.20 1.15 0.65 0.90 0.30 -0.25 4.65 -3.75 9.60 -7.85z m-88.05 0.90 c13.95 -2.50 35.30 -4.75 45.50 -4.75 l3.15 0 -1.45 -7.35 c-0.80 -4.05 -1.40 -8.15 -1.30 -9.10 0.15 -1.60 0.35 -1.80 2.25 -2.30 2.75 -0.65 3.05 -1.10 1.45 -1.80 -1 -0.50 -1.30 -0.95 -1.30 -2.30 0 -1.35 -0.20 -1.65 -1.05 -1.65 -0.60 0 -3.95 -1.25 -7.40 -2.80 -3.45 -1.55 -8.20 -3.65 -10.50 -4.70 l-4.25 -1.85 -3.75 2.40 c-4.85 3.10 -5.95 3.15 -12.10 0.25 l-4.65 -2.20 -6.30 3.30 c-3.45 1.75 -9 4.70 -12.40 6.45 l-6.15 3.25 0.80 1.25 c0.45 0.65 1.70 2.40 2.80 3.80 2.55 3.35 2.60 5.35 0.25 10.50 l-1.75 3.80 3.60 3.95 c2.05 2.30 3.90 3.90 4.30 3.80 0.35 -0.10 5 -1 10.25 -1.95z m-77.40 -7.65 c-0.60 -2.65 -1.25 -5.15 -1.50 -5.50 -0.20 -0.35 -1.45 -1.15 -2.75 -1.85 -2 -1 -2.60 -1.65 -3.70 -4.10 -4.40 -9.80 -8.80 -23.85 -11.05 -35.15 -0.15 -0.70 -0.15 0.20 0 2 0.65 8.55 4.75 22.55 9.45 32.25 2.60 5.40 9.75 17.25 10.40 17.25 0.10 0 -0.30 -2.20 -0.85 -4.90z m20.45 -25.55 l0.70 -1.40 -5.05 -2.40 -5 -2.45 0.20 -3.20 0.20 -3.25 -2.15 -1.30 c-1.85 -1.10 -2.15 -1.55 -2.15 -2.90 0 -1.60 0.10 -1.65 1.95 -1.65 1.60 0 5.35 0.90 9.45 2.25 0.35 0.15 -0.15 -1.15 -1.10 -2.90 l-1.75 -3.10 -2.80 -0.15 c-3.35 -0.20 -3.60 -0.05 -6.15 3.25 l-2.05 2.55 2.65 7.90 2.65 7.95 4.45 1.30 c2.45 0.70 4.60 1.20 4.85 1.10 0.20 -0.10 0.70 -0.85 1.10 -1.60z m158.20 -9.90 l2.75 -8 -2.25 -3.05 -2.20 -3.05 -3.30 -0.05 c-3.65 0 -3.25 -0.30 -5.85 4.10 l-1.15 1.80 3.40 -1 c1.90 -0.55 4.55 -1.05 5.90 -1.10 l2.50 -0.05 0.15 1.85 c0.15 1.70 0 1.95 -1.85 2.90 l-2.05 1 0 3.45 0 3.40 -4.55 2.15 c-3.25 1.55 -4.45 2.35 -4.25 2.85 0.20 0.40 0.45 1.25 0.60 1.85 l0.25 1.15 4.60 -1.10 4.60 -1.10 2.70 -8z m-134 5 c-5.75 -4.85 -9.95 -10.55 -9.95 -13.60 0 -1 1.05 -4.20 2.40 -7.30 l2.40 -5.50 1.95 -0.15 c2 -0.15 2.95 0.25 40.05 16.20 l1.55 0.65 1.90 -2.70 c1.70 -2.50 2.05 -2.75 3.70 -2.75 1.60 0 1.95 0.25 3.10 2.35 l1.35 2.30 1 -2.30 c0.95 -2.15 1.20 -2.35 2.80 -2.35 1.55 0 2 0.35 3.80 2.70 l2.05 2.70 3.35 -1.40 c1.85 -0.75 6.85 -2.90 11.10 -4.75 4.25 -1.85 10.55 -4.55 14 -6 3.45 -1.45 7.30 -3.10 8.60 -3.70 1.35 -0.65 3 -1.05 4 -0.95 1.55 0.15 1.80 0.40 4.50 5.90 1.55 3.15 2.85 6.45 2.85 7.25 0.05 0.85 -0.55 2.35 -1.35 3.55 -2.05 3.05 -6.05 8.25 -7.80 10.10 -0.80 0.85 -1.35 1.60 -1.20 1.60 0.15 0 1.85 -0.65 3.75 -1.45 3.05 -1.30 3.45 -1.65 3.70 -3.15 0.15 -0.90 1.25 -3.35 2.40 -5.45 l2.10 -3.85 -0.55 -7.15 c-0.30 -3.95 -0.65 -8.55 -0.80 -10.25 l-0.25 -3 -8.95 -4.90 c-4.90 -2.70 -9 -4.95 -9.10 -5 -0.10 0 -6.30 3.95 -13.80 8.85 -10.95 7.15 -13.90 8.85 -15.30 8.85 -0.95 0 -1.80 -0.25 -1.90 -0.60 -0.15 -0.35 -1.70 0.50 -3.90 2 -4.75 3.35 -5.80 3.40 -11.20 0.15 -3.35 -2 -4.35 -2.40 -5.85 -2.20 -1.60 0.20 -2.80 -0.40 -10.75 -5.40 -4.90 -3.10 -11.05 -6.95 -13.60 -8.55 l-4.65 -2.90 -9.60 5.35 c-5.30 2.95 -9.65 5.35 -9.75 5.40 -0.05 0.05 -0.35 3.10 -0.60 6.80 -0.25 3.70 -0.60 7.60 -0.75 8.70 -0.25 1.85 0 2.50 3.05 7.25 6 9.55 5.65 9.15 8.70 9.80 1.50 0.30 2.95 0.60 3.20 0.65 0.25 0 -0.50 -0.80 -1.75 -1.80z m83.30 -7.45 c0.75 -1.25 1.25 -2.35 1.15 -2.40 -0.05 -0.10 -2.15 0.70 -4.60 1.70 l-4.40 1.85 2.40 0.55 c3.90 0.80 4 0.75 5.45 -1.70z m-64 0.75 c0.25 -0.25 0.30 -0.45 0.15 -0.45 -0.15 0 -2.15 -0.80 -4.35 -1.75 l-4.05 -1.70 1.30 2.50 1.25 2.55 2.60 -0.35 c1.45 -0.20 2.80 -0.55 3.10 -0.80z m-81.65 -16.85 c2.55 -2.70 2.75 -3.55 3.10 -10.85 1.75 -39.75 25.85 -76.10 61.50 -92.80 4.50 -2.10 15.40 -5.90 17.05 -5.95 0.55 -0.05 2.70 -1.65 4.75 -3.60 2.05 -1.95 3.30 -3.40 2.75 -3.25 -0.55 0.15 -2.35 0.55 -4 0.90 -10.10 2 -24.35 7.80 -34.30 13.95 -8.65 5.35 -20.15 15.50 -26.70 23.50 -9.85 12 -18.75 29.90 -22.75 45.60 -2.40 9.35 -3.10 14.80 -3.25 26.40 -0.10 6.35 -0.05 10.45 0.20 9.35 0.20 -1.05 0.95 -2.50 1.65 -3.25z m225.15 -7.60 c-1.70 -31.05 -13.30 -58 -33.90 -78.70 -12.75 -12.80 -28.10 -22.10 -45.70 -27.60 -2.30 -0.70 -2.20 -0.80 -2.90 2.65 -0.30 1.55 -0.30 1.55 2.60 2.40 11.25 3.15 23.65 9.75 33.90 18.05 20.80 16.70 34.75 40.55 39.50 67.45 0.40 2.50 1.05 8.60 1.35 13.60 l0.60 9.10 2 2.75 2.05 2.75 0.40 -3.60 c0.20 -2 0.25 -5.95 0.10 -8.85z m-248.70 -6.45 l0.75 -3.40 -4.75 -0.90 c-2.65 -0.45 -7.25 -1.25 -10.30 -1.80 -8.20 -1.40 -7.75 -1.20 -7.75 -3.20 0 -1.95 -1 -1.55 11.25 -4.50 9.35 -2.25 10.85 -2.70 10.45 -3.30 -0.15 -0.30 -4.10 -3.55 -8.75 -7.25 -7.95 -6.40 -8.45 -6.90 -8.45 -8.50 0 -1.70 0.05 -1.70 2.20 -1.70 1.25 0 6.65 1 12.05 2.25 5.45 1.25 9.90 2.25 9.95 2.15 0.10 -0.10 0.40 -1.70 0.75 -3.60 0.40 -2.45 0.45 -3.55 0.05 -3.80 -0.30 -0.15 -2.70 -0.70 -5.40 -1.20 -2.65 -0.50 -10.80 -2 -18.05 -3.40 -7.25 -1.35 -13.35 -2.30 -13.55 -2.05 -0.30 0.35 -1.50 6.75 -1.50 8.05 0 0.25 4.05 3.50 9 7.15 8.80 6.55 9 6.70 9 8.50 l0 1.85 -7.35 1.75 c-4.10 1 -9 2.15 -11 2.65 l-3.55 0.85 -1.10 4.45 c-0.60 2.45 -1 4.60 -0.85 4.70 0.15 0.15 5.60 1.35 12.15 2.70 18.85 3.80 22.45 4.60 22.65 4.80 0.80 0.75 1.40 -0.25 2.10 -3.25z m129.30 -14.80 c0.70 -2.20 2.45 -6.70 3.90 -10 3.25 -7.50 3.90 -9.75 3.45 -12.15 -0.50 -2.65 -3 -8.05 -3.90 -8.40 -0.45 -0.15 -0.80 -0.55 -0.80 -0.85 0 -0.30 -0.35 -0.95 -0.85 -1.45 -0.45 -0.50 -1.70 -2.30 -2.75 -4.05 l-1.95 -3.10 0.30 2.25 c0.35 2.20 2.45 6.95 4.25 9.50 1.50 2.15 2 4.50 2 9.20 0 4.45 -0.10 4.70 -2.80 10.80 -2.15 4.80 -5.65 13.60 -5.70 14.35 0 0.05 -0.55 0.15 -1.25 0.25 -1.20 0.15 -1.15 0.25 1.40 3.15 l2.60 2.95 0.40 -4.20 c0.25 -2.35 1 -6.05 1.70 -8.25z m171.85 9.80 c3 -1.55 5 -4.20 5.80 -7.55 0.65 -2.75 0.55 -3.55 -1.55 -14.10 -0.80 -4.05 -1.45 -7.80 -1.45 -8.35 0 -1.30 -0.55 -1.30 -6.85 -0.10 -5.15 1.05 -19.75 3.60 -27.40 4.85 -2.45 0.40 -4.50 0.80 -4.55 0.85 -0.05 0.05 0.30 2.15 0.80 4.60 0.60 3.20 1.05 4.50 1.55 4.45 0.40 -0.05 2.85 -0.45 5.50 -0.90 2.60 -0.50 5.40 -0.80 6.20 -0.70 1.30 0.15 1.45 0.40 2.30 4 1.45 6.20 3.95 10.15 8.05 12.70 3.85 2.45 7.40 2.50 11.60 0.25z m-154.80 -21.30 c2.70 -4.25 5.10 -10.30 5.10 -13.05 0 -0.90 -0.70 -3.10 -1.50 -4.95 -1.45 -3.25 -2.30 -4.50 -5.85 -8.60 -0.90 -1.05 -1.65 -2.15 -1.65 -2.45 0 -0.30 -0.55 -1.05 -1.25 -1.70 -0.70 -0.65 -1.25 -1.40 -1.25 -1.65 0 -0.25 -0.70 -1.50 -1.55 -2.75 -2 -2.95 -2.95 -5.65 -2.95 -8.35 0 -2.65 -0.45 -3.10 -1.35 -1.40 -1.20 2.30 -1.35 5.40 -0.40 8.20 0.85 2.70 4.15 8.60 6.80 12.20 3.20 4.40 4.05 7.05 4.30 13 0.20 4.90 0.05 6.10 -1.25 11 -0.80 3.05 -1.65 5.95 -1.90 6.50 -0.60 1.55 1.75 -1.45 4.70 -6z m128.85 -20.65 c4.70 -2.05 11.40 -5.05 14.90 -6.60 3.55 -1.55 6.45 -3 6.50 -3.20 0 -0.20 -0.50 -1.80 -1.15 -3.50 l-1.15 -3.15 -8.30 3.60 c-4.55 2 -11.80 5.15 -16.05 7 -4.25 1.85 -8.70 3.80 -9.85 4.30 l-2.10 0.90 0.70 1.80 c0.40 0.95 1.10 2.55 1.50 3.50 l0.70 1.75 2.90 -1.30 c1.60 -0.70 6.75 -3 11.40 -5.10z m-264.95 -6.45 c6.95 -2.35 12.90 -8.80 15.70 -17.15 3.40 -10.10 -3.20 -20.30 -15.70 -24.30 -5.10 -1.65 -8.40 -1.45 -13.10 0.75 -7.95 3.70 -14.95 15.35 -14 23.30 0.45 3.80 2.90 8.25 6.15 11.25 3.75 3.45 4.55 3.95 9.10 5.55 4.45 1.65 8.25 1.85 11.85 0.60z m243.20 -6.80 c0 -0.35 1.20 -3.95 2.70 -8.10 3.05 -8.55 3.25 -8.75 7.80 -6.80 1.35 0.60 2.90 1.05 3.50 1.05 2.70 0 9.15 -4.95 10.70 -8.25 1.90 -3.95 0.75 -6.75 -7.10 -17.60 l-5.50 -7.65 -4.65 3.90 c-2.60 2.15 -9.50 7.80 -15.30 12.55 -5.85 4.75 -10.65 8.75 -10.65 8.90 0 0.10 1.15 1.55 2.55 3.15 l2.60 2.90 4.75 -3.95 c3.85 -3.20 5.10 -3.95 6.45 -3.95 1.50 0 1.65 0.15 1.65 1.55 0 0.85 -0.55 2.90 -1.20 4.60 -3.25 8.45 -4.25 11.50 -3.95 12 0.15 0.35 1.30 2 2.55 3.75 2 2.85 3.10 3.50 3.10 1.95z m-209.60 -31.20 c0.10 -0.05 -2.65 -4.30 -6.10 -9.45 -4.50 -6.70 -6.30 -9.80 -6.30 -10.85 0 -2.45 1 -2.20 22.75 5.55 l5.45 1.95 3.15 -2.50 c1.75 -1.40 2.95 -2.75 2.80 -3.05 -0.85 -1.40 -20.30 -30.60 -20.70 -31 -0.25 -0.25 -1.40 0.35 -2.75 1.50 -1.30 1.05 -2.60 2.10 -2.85 2.25 -0.35 0.25 8.85 14.55 10.95 17 0.40 0.40 0.70 1.60 0.70 2.60 0 1.65 -0.15 1.85 -1.30 1.85 -0.70 0 -6.70 -2.05 -13.30 -4.55 -6.60 -2.45 -12.30 -4.40 -12.60 -4.30 -0.30 0.15 -1.95 1.40 -3.70 2.85 l-3.10 2.60 4.15 6.05 c2.30 3.35 7.15 10.55 10.80 16 l6.60 9.90 2.60 -2.15 c1.45 -1.20 2.70 -2.20 2.75 -2.25z m185.50 -4.50 c0.75 -0.70 4.70 -6.80 7.75 -11.95 0.20 -0.35 -2.15 -2.40 -6 -5.20 l-6.35 -4.65 -1.15 1.45 c-0.60 0.80 -1.15 1.55 -1.15 1.70 0 0.15 1.35 1.15 3 2.20 2.85 1.80 3 2.05 3 3.85 0 1.30 -0.45 2.65 -1.30 3.95 -1.30 1.95 -1.40 2 -4.40 2 -5.50 0 -8.45 -1.45 -10.90 -5.40 -0.95 -1.55 -1.15 -2.55 -1.15 -6.10 0 -3.75 0.20 -4.65 1.60 -7.60 2.25 -4.85 5.70 -8.10 9.25 -8.90 5.70 -1.30 12.25 0.90 14.10 4.70 0.50 1.05 1.05 2.90 1.20 4.10 l0.25 2.15 3.05 -0.30 c1.65 -0.15 3.25 -0.45 3.50 -0.65 0.70 -0.65 -1.15 -5.40 -3.40 -8.65 -3.70 -5.45 -10.85 -9.35 -17.05 -9.35 -8.75 0 -16.70 6.90 -19.80 17.15 -1.45 4.65 -1.15 8.20 1 12.55 3.25 6.60 9.80 12.05 16.05 13.25 4 0.80 7.80 0.65 8.90 -0.30z m-142.50 -20.45 c0.10 -0.05 -0.75 -3.10 -1.85 -6.70 -1.15 -3.65 -2.05 -7.40 -2.05 -8.30 0 -1.60 0.10 -1.70 1.75 -1.70 1.55 0 2.85 0.85 9.80 6.70 l8.05 6.70 4.05 -1.25 c2.25 -0.70 4.25 -1.40 4.45 -1.55 0.20 -0.20 -2.95 -2.80 -7 -5.85 -11.85 -8.85 -12.10 -9.05 -12.10 -11.15 0 -1.05 0.80 -4 1.80 -6.60 3.35 -8.90 5.30 -14.55 5.10 -14.75 -0.25 -0.30 -7.05 1.80 -7.65 2.35 -0.25 0.25 -2 4.90 -3.80 10.30 l-3.30 9.85 -1.75 0.15 -1.80 0.15 -1 -3.90 c-0.60 -2.15 -1.55 -5.95 -2.20 -8.45 l-1.15 -4.50 -3.70 1.10 c-2 0.65 -3.80 1.25 -3.90 1.40 -0.15 0.15 2.25 8.40 5.35 18.40 3.05 10 5.65 18.50 5.80 18.95 0.20 0.75 0.55 0.75 3.60 -0.20 1.85 -0.60 3.40 -1.10 3.50 -1.15z m99.40 -18.35 c0.70 -0.90 4.85 -5.20 9.25 -9.60 l7.95 -8 -3.40 -1.05 -3.35 -1.10 -5.50 5.75 c-5.10 5.25 -5.65 5.70 -7.35 5.65 -1.30 0 -1.90 -0.25 -2.10 -0.85 -0.10 -0.50 -0.95 -4.20 -1.85 -8.25 l-1.65 -7.30 -4 -1.25 c-2.25 -0.65 -4.10 -1.15 -4.15 -1.10 -0.10 0.05 1.35 5.30 3.10 11.70 3.90 14 4 15.20 1.45 23 -2.65 8.20 -2.70 7.95 1.80 9.30 l3.75 1.10 2.35 -8.20 c1.60 -5.45 2.80 -8.75 3.70 -9.80z m-37.55 10.05 c0.15 -0.35 0.30 -1.95 0.35 -3.55 l0.15 -2.85 -7 -0.30 c-3.85 -0.15 -7.20 -0.45 -7.40 -0.65 -0.20 -0.20 -0.35 -2.40 -0.25 -4.85 l0.15 -4.45 6.50 -0.25 6.50 -0.25 0.15 -2.85 0.15 -2.90 -5.90 0 c-3.25 0 -6.20 -0.20 -6.60 -0.45 -0.50 -0.35 -0.60 -1.40 -0.30 -5 l0.35 -4.55 6.95 0 6.95 0 0 -3.45 0 -3.40 -2.60 -0.35 c-1.45 -0.15 -6.60 -0.30 -11.45 -0.30 l-8.80 0 -0.35 6.65 c-0.15 3.60 -0.40 11.80 -0.55 18.10 -0.15 6.35 -0.40 12.45 -0.55 13.60 l-0.25 2.10 2.40 0.20 c1.30 0.10 6.65 0.20 11.80 0.25 7.10 0.10 9.45 -0.05 9.60 -0.50z"/>
  <path d="M199.15 251.80 c-3.85 -0.60 -4.25 -0.75 -5.90 -2.60 -1.35 -1.55 -1.70 -2.30 -1.60 -3.70 0.10 -1.65 0.25 -1.80 2.85 -2.65 1.50 -0.50 3.80 -1.05 5.10 -1.20 l2.40 -0.30 3.50 3.70 c3 3.20 3.45 3.95 3.50 5.60 l0 1.85 -2.85 -0.05 c-1.60 -0.05 -4.75 -0.35 -7 -0.65z"/>
  <path d="M214.50 250.60 c0 -1.65 0.40 -2.25 3.65 -5.50 4.20 -4.20 4.75 -4.30 9.95 -2.30 l3.40 1.30 0 2.15 c0 1.85 -0.25 2.30 -1.70 3.40 -1.80 1.40 -8.45 2.85 -12.90 2.85 l-2.40 0 0 -1.90z"/>
  <path d="M367.90 185.70 c-2.25 -0.95 -3.40 -3.15 -3.75 -7.25 -0.30 -3.30 -0.95 -2.90 6.10 -4.20 5.90 -1.10 7.15 -1 7.75 0.55 0.80 2.10 0.60 7.80 -0.30 9.15 -1.70 2.40 -6.20 3.20 -9.80 1.75z"/>
  <path d="M78.50 135 c-1.50 -0.55 -2.80 -1 -2.85 -1 -0.55 0 -4.85 -4.45 -5.45 -5.55 -1.05 -2.05 -0.95 -8.30 0.20 -10.45 1.25 -2.35 5.40 -4.50 8.75 -4.50 2.70 0 7.75 1.15 10 2.30 2.25 1.20 5.45 4.30 6.20 6.05 1.85 4.55 0.10 10.95 -3.60 13 -2.70 1.50 -9.20 1.60 -13.25 0.15z"/>
  <path d="M337.75 116.80 c-2.10 -0.95 -3.75 -3.40 -3.75 -5.50 0 -1.60 0.40 -2.10 3.90 -5 3.15 -2.65 4.20 -3.25 5.65 -3.30 1.55 0 2 0.30 3.25 2.05 1.20 1.75 1.45 2.70 1.60 5.70 0.20 3.25 0.10 3.70 -1.05 5 -1.10 1.30 -1.60 1.50 -4.65 1.60 -2.20 0.10 -4 -0.10 -4.95 -0.55z"/>
 </g>
 <g fill="#ffffff">
  <path d="M203.75 407.20 c-51.45 -3 -96.60 -23 -132.05 -58.55 -24 -24.05 -41.80 -54.55 -50.65 -86.90 -5.10 -18.55 -7.10 -33.50 -7.10 -53.25 0 -26.65 4.50 -50.40 14.15 -74.50 19.35 -48.15 58.15 -88 105.65 -108.35 37.30 -16 78.25 -20.25 118.20 -12.35 72.50 14.35 131.95 69.25 152.05 140.45 5.55 19.65 7.60 35 7.45 56.50 -0.10 15.95 -1.45 27.80 -4.75 42.25 -7.20 31.15 -20.50 58.05 -41.40 83.50 -5 6.15 -20.65 21.55 -26.90 26.55 -32.25 25.75 -66.30 39.70 -106.90 43.90 -5.20 0.55 -23 1.05 -27.75 0.75z m23.25 -10.45 c31.95 -2.60 61.45 -13.30 90.25 -32.80 34.20 -23.10 59.70 -56.40 74.50 -97.25 6.60 -18.20 9.75 -36 9.75 -54.95 -0.05 -59.65 -22.35 -111 -63.50 -146.25 -25.30 -21.65 -57.40 -37.25 -88.50 -43.05 -17.75 -3.30 -46.95 -3.85 -64.75 -1.20 -23.90 3.50 -42.90 9.30 -61.85 18.75 -42.75 21.40 -73.65 58.70 -91.10 110 -5.75 17 -7.85 30.45 -7.80 51.05 0 33.30 6.80 63.40 20.65 91.25 7.30 14.70 13.85 24.45 25.75 38.30 l4.15 4.85 -0.75 1.50 c-1.15 2.15 -1 6.75 0.25 9.35 0.55 1.20 1.90 2.95 3 3.95 l2.05 1.80 4.05 -0.20 c2.25 -0.10 4.70 -0.40 5.45 -0.60 1.15 -0.30 1.70 -0.05 3.35 1.40 3.85 3.50 17.45 13.25 22.45 16.15 1.30 0.75 1.60 1.15 1.30 1.95 -1.45 4.40 -0.15 8.35 3.95 12.05 4.85 4.35 11 4.85 18.20 1.50 l4 -1.90 1.95 0.85 c5.20 2.25 16.10 5.95 22.20 7.55 22.10 5.80 40.65 7.65 61 5.95z"/>
  <path d="M245.55 383 c-5.40 -1.30 -8.55 -7.45 -8.55 -16.80 0 -20.90 14.25 -46.65 27.40 -49.45 4.70 -1 8.35 1.50 9.80 6.75 1.90 6.70 -0.45 13.70 -6.70 20.10 -3.40 3.45 -4.55 3.95 -6.55 2.90 -1.35 -0.75 -1.20 -1.70 0.75 -4.95 6.40 -10.60 8.40 -17.55 5 -17.55 -4.85 0 -12.70 10.40 -17.40 23.10 -2.45 6.60 -3.40 11.25 -3.50 16.90 -0.05 3.95 0.15 5.10 1 6.75 2.45 4.70 8.55 3.70 15.45 -2.60 2.30 -2.10 7.10 -7.90 9.10 -11 1.40 -2.20 1.85 -2.60 2.45 -2.10 1.30 1.10 0.75 3.35 -1.85 7.60 -9.25 14.90 -18.70 22.20 -26.40 20.35z"/>
  <path d="M281.45 368.95 c-2.05 -0.75 -3.35 -3.75 -4.45 -10.20 -1.30 -7.70 -1.25 -12.75 0.25 -20.90 1.45 -7.95 5.15 -19.70 7.15 -22.90 2.95 -4.60 6.15 -5.65 8.30 -2.80 0.85 1.15 1.10 2.30 1.20 6.30 0.40 10.25 -4.05 25.30 -9.70 32.90 -0.95 1.25 -1.20 2.20 -1.20 4.50 0 3.55 0.75 6.45 1.80 6.85 0.90 0.35 3.10 -0.70 4.30 -2.05 0.45 -0.50 2.15 -3.60 3.75 -6.90 l2.90 -6 0.15 -9 c0.10 -8.40 0.20 -9.05 1.15 -9.85 1.30 -1.10 4.10 -1.15 5.15 -0.10 0.70 0.65 0.80 2.40 0.80 11.40 -0.05 10.75 0.30 13.30 1.85 13.30 1.05 0 2.50 -2.80 3.55 -6.95 0.80 -2.95 1.05 -6 1.25 -14 0.20 -9.50 0.30 -10.20 1.30 -11.20 1.30 -1.35 4.10 -1.40 5.55 -0.10 0.95 0.85 1 1.45 1 9.50 0 4.75 0.15 9.65 0.30 10.90 0.35 2.40 1.30 3.30 2.50 2.30 0.95 -0.75 2.50 -5.85 3.75 -12.15 0.90 -4.65 1 -5.80 0.50 -8 -1.45 -6.35 -3.20 -25.25 -2.95 -31.55 l0.15 -4 2.10 -0.15 c1.75 -0.15 2.20 0.05 2.90 1.05 1 1.55 1.65 5.50 2.15 12.85 l0.40 5.75 0.85 -1.85 c1.70 -3.75 5 -4.85 8.75 -2.95 3.35 1.75 5.65 5.15 6.65 10 0.90 4.25 0.35 13.60 -1 17.10 -1.20 3.10 -4.35 7.05 -6.60 8.20 -2.75 1.45 -6.85 0.65 -9.35 -1.75 -0.65 -0.60 -1.25 -1 -1.35 -0.95 -0.05 0.10 -0.50 1.90 -0.90 3.95 -1.75 8.50 -4.40 12.50 -8.20 12.50 -1.45 0 -2.25 -0.40 -3.75 -1.85 -1.35 -1.35 -1.95 -1.65 -2.10 -1.10 -0.15 0.40 -0.65 1.70 -1.05 2.95 -1.05 3 -3.05 6.30 -4.35 7.25 -0.65 0.40 -2 0.75 -3 0.75 -1.60 0 -2.30 -0.35 -4.15 -2.25 -1.25 -1.20 -2.25 -2.45 -2.25 -2.80 0 -1.40 -1.20 0.15 -2.50 3.25 -2.70 6.30 -7.55 11.35 -10.85 11.25 -0.80 0 -2 -0.25 -2.70 -0.50z m3.75 -27.50 c3.05 -8.05 5.60 -21.35 4.40 -22.55 -0.40 -0.40 -0.75 -0.40 -1.05 -0.10 -1.15 1.15 -5.55 21.15 -5.55 25.05 0 2.45 0.65 1.75 2.20 -2.40z m51.40 -8.50 c3.55 -1.90 3.65 -16 0.15 -22.95 -1.55 -3.10 -2 -3.30 -3.45 -1.85 -1.60 1.60 -2.30 5.25 -2.30 12.05 0 6.35 0.90 10.25 2.75 12.10 1.40 1.35 1.45 1.40 2.85 0.65z"/>
  <path d="M208.05 329.30 l-9.15 -0.55 -5.10 -7.85 c-2.75 -4.35 -6.40 -9.95 -8.05 -12.50 -3.30 -5.15 0.45 -2 -38 -31.80 l-7.30 -5.65 3.95 -4.35 c3.95 -4.30 6.10 -6.45 6.10 -6.05 0 0.10 -0.55 1.95 -1.20 4.10 l-1.20 3.95 1.75 1.95 c5.35 5.90 18.15 16.35 28.40 23.10 3.60 2.40 7 4.65 7.55 5.05 1 0.70 14.70 22.45 14.70 23.30 0 0.65 2.15 0.90 11.75 1.45 l8.45 0.50 3.50 -2.85 c15.95 -13.05 36.95 -34.75 48.75 -50.35 l2.65 -3.50 -0.35 5.50 -0.35 5.50 1.40 -1.25 c0.80 -0.70 3.50 -3.05 5.95 -5.25 2.50 -2.15 4.80 -4.20 5.15 -4.50 0.55 -0.50 0.10 -1.35 -2.20 -4.55 -2.75 -3.85 -4.95 -8.10 -5.50 -10.65 -0.20 -1 0.75 -0.25 3.95 3.20 2.35 2.50 4.40 4.35 4.60 4.20 0.15 -0.20 -0.15 -2.20 -0.75 -4.45 -1.10 -4.25 -0.95 -4.95 0.90 -5 0.60 0 11.70 -3.45 12 -3.75 0.50 -0.45 5.95 -15.90 6.90 -19.65 l1.20 -4.65 -4.10 -6.10 c-2.25 -3.35 -4.30 -6.25 -4.60 -6.50 -0.30 -0.20 -3.75 -0.35 -7.70 -0.30 -3.95 0 -7.25 -0.05 -7.35 -0.15 -0.10 -0.10 0.40 -2.15 1.10 -4.55 0.75 -2.40 1.20 -4.50 1 -4.65 -0.15 -0.20 -1.35 0.30 -2.60 1.05 -1.30 0.75 -2.45 1.20 -2.65 1.05 -0.15 -0.15 0.10 -4.95 0.55 -10.70 1.30 -15.75 2.50 -12.60 -9.55 -24.90 -16.30 -16.55 -30.75 -33.10 -43.20 -49.35 l-4.50 -5.95 0.60 -8.45 c0.35 -4.70 0.55 -8.60 0.40 -8.70 -0.25 -0.25 -8.90 2.45 -10.45 3.25 -3.15 1.70 -17.85 15.25 -28.35 26.20 -6.70 6.95 -18.70 20.55 -23.75 26.90 -1.70 2.10 -3.25 3.85 -3.50 3.85 -0.35 0.05 -0.25 -1.75 0.40 -7.90 0.20 -1.95 0.15 -2.10 -0.55 -1.50 -2 1.65 -14.30 17.65 -19.25 25.05 -4 5.95 -5.50 8.80 -5.20 10.10 0.30 1.35 1.75 22.10 1.75 25.10 l0 2.30 -1.85 -1.15 c-4.10 -2.45 -4.60 -2.65 -4.90 -2.40 -0.15 0.20 0.40 1.75 1.25 3.50 0.80 1.75 1.50 3.45 1.50 3.75 0 0.80 -1.65 1.15 -5.25 1.25 -4.85 0.10 -5.45 0.40 -8.10 3.95 -1.35 1.80 -2.90 4.05 -3.50 5 l-1.10 1.80 4.20 11.90 c2.30 6.55 4.45 12.20 4.85 12.55 0.35 0.35 3.20 1.45 6.25 2.50 3.10 1 5.75 2.05 5.95 2.30 0.15 0.25 -0.45 1.45 -1.35 2.70 -0.90 1.25 -1.50 2.40 -1.35 2.55 0.20 0.15 2.95 -0.90 6.15 -2.30 3.20 -1.45 5.90 -2.50 6 -2.40 0.50 0.45 -3.25 6.70 -4.30 7.25 -1.35 0.65 -16.60 5.15 -16.85 4.90 -0.05 -0.05 0.90 -1.95 2.20 -4.20 1.25 -2.25 2.20 -4.30 2.10 -4.60 -0.10 -0.25 -2.05 -1.25 -4.40 -2.20 -2.30 -0.95 -4.40 -1.95 -4.60 -2.15 -0.70 -0.70 -10.45 -30.35 -10.25 -31.15 0.10 -0.45 2.30 -3.75 4.85 -7.35 l4.65 -6.60 3.45 0 c2.45 0 3.50 -0.20 3.70 -0.70 0.20 -0.55 -1.75 -9.25 -2.60 -11.50 -0.50 -1.30 0.70 -0.95 3.30 0.95 3.30 2.45 3.60 2.35 3.25 -1.35 -1.05 -12.65 -1.25 -19.05 -0.65 -19.95 0.35 -0.50 6.10 -8.05 12.70 -16.80 6.65 -8.75 14.30 -18.85 17 -22.50 2.75 -3.65 5.10 -6.60 5.35 -6.60 0.20 -0.05 0.35 2.60 0.35 5.85 l0 5.85 2.90 -3.25 c6.60 -7.50 16.70 -18.10 29.95 -31.50 l14.10 -14.25 5.90 -2.10 c3.25 -1.15 8.80 -3.10 12.30 -4.40 3.55 -1.30 6.55 -2.20 6.75 -2.05 0.15 0.15 -0.30 1.35 -1 2.65 -1.40 2.55 -3.35 8.50 -4.90 14.65 -0.95 3.70 -0.95 3.75 0 5.80 2.35 4.75 12.15 18.55 19.75 27.65 7.80 9.40 24.60 26.75 36.85 38.10 l1.85 1.70 -0.45 8 c-0.25 4.40 -0.60 9.05 -0.75 10.40 -0.20 1.50 -0.10 2.35 0.25 2.35 0.30 0 1.75 -0.70 3.30 -1.55 1.50 -0.85 2.80 -1.50 2.90 -1.40 0.10 0.10 -0.60 2.90 -1.50 6.20 -1.20 4.40 -1.45 6.10 -1.05 6.35 0.35 0.20 3 0.40 5.95 0.40 5.05 0 5.40 0.05 5.95 1.15 0.35 0.60 2.80 4.10 5.50 7.75 2.75 3.65 4.95 6.95 4.95 7.35 0 1.15 -10.30 30.75 -10.95 31.40 -0.20 0.20 -2.50 0.95 -5.10 1.70 -2.60 0.70 -4.90 1.50 -5.15 1.70 -0.30 0.25 0.10 2.85 0.95 6.45 0.80 3.50 1.20 6.25 0.95 6.45 -0.50 0.50 -21 17.40 -22.35 18.50 -0.90 0.70 -0.90 0.60 -0.80 -2.10 0.05 -1.55 0 -2.95 -0.15 -3.10 -0.10 -0.15 -1.20 0.95 -2.45 2.35 -7.50 9.10 -22.40 24.45 -34.70 35.80 -4.95 4.60 -9.60 8.95 -10.40 9.75 -1.65 1.55 -1.25 1.55 -16.30 0.65z"/>
  <path d="M150.75 300.45 c-29.70 -15.35 -49.25 -44.55 -52.80 -78.85 -0.85 -8.30 -0.30 -25.80 1 -33 3.75 -20.45 12.65 -40.30 24.80 -55.10 3.80 -4.65 13.80 -14.25 18.65 -17.95 10.25 -7.75 21.60 -13.45 35 -17.60 5.50 -1.70 18 -4.20 18.50 -3.70 0.55 0.55 -10.50 10.70 -11.65 10.75 -1.60 0.05 -12.55 3.85 -17.05 5.95 -22.45 10.55 -41.25 29.65 -51.65 52.45 -6.15 13.50 -9.20 26.05 -9.85 40.35 -0.20 3.85 -0.50 7.35 -0.75 7.80 -0.20 0.45 -1.20 1.75 -2.20 2.95 -2.05 2.45 -2.05 2.05 0.25 11.75 2.35 9.80 5.60 19.55 9.35 27.90 1.15 2.50 1.65 3.10 3.75 4.15 2.80 1.45 3.05 1.85 4.40 8.15 0.55 2.60 1.30 4.90 1.60 5.15 0.35 0.20 1.35 0.40 2.25 0.40 1.25 0 1.90 0.40 3.20 2.15 5.95 7.65 14.25 16.55 21.20 22.60 5.90 5.15 6.55 5.75 6.25 5.75 -0.15 0 -2.05 -0.95 -4.25 -2.05z"/>
  <path d="M232.40 285.75 c-0.15 -0.15 -7.15 -0.55 -36.35 -2.05 -3.40 -0.20 -5.85 -0.50 -5.50 -0.70 0.95 -0.55 15.80 -3.25 22.95 -4.25 6.60 -0.90 24.85 -2.05 25.30 -1.65 0.15 0.20 -0.05 1 -0.50 1.80 -0.85 1.60 -0.05 1.45 -9.80 2.40 -1.65 0.15 -3.10 0.45 -3.25 0.65 -0.10 0.20 1.80 1 4.25 1.80 2.50 0.75 4.50 1.45 4.50 1.50 0 0.25 -1.40 0.70 -1.60 0.50z"/>
  <path d="M181.60 275.90 c-5 -5.25 -5.70 -6.25 -5.30 -7.50 0.20 -0.65 1.10 -2.80 2 -4.85 0.95 -2 1.70 -3.95 1.70 -4.25 0 -0.30 -1.60 -2.65 -3.55 -5.25 -2.90 -3.85 -3.40 -4.80 -2.85 -5.30 0.35 -0.35 6.60 -3.75 13.85 -7.50 l13.25 -6.85 5.65 2.60 5.65 2.65 4.55 -2.90 4.55 -2.90 5.30 2.40 c2.95 1.30 8.05 3.60 11.40 5.05 3.35 1.50 6.30 2.70 6.60 2.70 1.40 0 12.30 -5.65 13.65 -7.10 1.80 -1.95 7.15 -8.75 9 -11.55 l1.35 -1.95 -2.50 -5.30 c-1.40 -2.95 -2.75 -5.65 -3.10 -6 -0.45 -0.50 -1.10 -0.35 -3.05 0.60 -1.40 0.65 -4.95 2.20 -8 3.45 -3 1.25 -11.15 4.75 -18.10 7.75 -6.90 3 -12.75 5.30 -13 5.15 -0.20 -0.15 -1.40 -1.60 -2.60 -3.20 -1.20 -1.70 -2.35 -2.75 -2.60 -2.50 -0.25 0.25 -0.95 1.75 -1.65 3.40 -0.65 1.65 -1.40 3.05 -1.70 3.15 -0.30 0.10 -1.35 -1.45 -2.40 -3.35 -1.05 -1.95 -2.05 -3.55 -2.25 -3.55 -0.15 0 -1.25 1.35 -2.40 3 -1.15 1.65 -2.40 3 -2.75 3 -0.35 0 -9.85 -3.95 -21.05 -8.75 -11.25 -4.85 -20.70 -8.70 -21 -8.55 -0.30 0.10 -1.60 2.70 -2.95 5.80 l-2.35 5.60 1.65 2.80 c2.90 4.85 10.40 11.45 17.65 15.50 1.55 0.90 0.25 0.70 -8.50 -1.10 l-8 -1.65 -1.35 -1.95 c-0.70 -1.05 -2.80 -4.30 -4.65 -7.20 l-3.35 -5.25 0.30 -3.85 c0.20 -2.10 0.55 -6.70 0.80 -10.20 0.25 -3.50 0.55 -6.40 0.60 -6.45 2.35 -1.50 20.45 -11.25 20.90 -11.25 0.35 0 3.95 2.05 7.95 4.60 17.10 10.75 20.55 12.85 20.55 12.60 0 -0.15 -0.45 -0.95 -1.05 -1.75 -0.55 -0.80 -0.85 -1.45 -0.70 -1.45 0.20 0 3.35 1.80 7.05 4.05 4 2.40 6.95 3.85 7.30 3.65 0.35 -0.20 3.50 -2.35 7.05 -4.75 3.50 -2.45 6.35 -4.30 6.35 -4.20 0 0.15 -0.65 1.30 -1.45 2.60 -0.85 1.30 -1.40 2.45 -1.30 2.55 0.10 0.10 6.45 -3.90 14.05 -8.90 7.65 -5 14.20 -9.20 14.50 -9.35 0.35 -0.10 5 2.20 10.35 5.15 l9.75 5.40 0.30 2.75 c0.15 1.55 0.55 6.75 0.85 11.60 l0.60 8.85 -2.35 4.30 c-1.55 2.90 -2.25 4.70 -2.05 5.45 0.25 1 -0.50 1.45 -10.10 5.55 -5.70 2.45 -10.90 4.75 -11.55 5.15 l-1.15 0.70 2.20 1.50 c1.25 0.80 2.50 1.80 2.85 2.20 0.70 0.85 0.70 0.85 -3.90 1.75 -1.70 0.35 -3.25 0.80 -3.35 1.05 -0.15 0.20 0.40 3.85 1.25 8.05 2.05 10.55 2.20 9.90 -1.70 9.90 -14.35 0 -46.70 4.10 -57.85 7.30 -0.55 0.15 -1.90 -0.90 -3.85 -2.90z m25.90 -25.25 c0 -0.25 -1.55 -2 -3.45 -4 l-3.40 -3.60 -3.40 0.95 c-1.90 0.55 -3.60 1.15 -3.80 1.35 -0.20 0.25 0.40 1.30 1.35 2.35 1.60 1.85 1.95 2 5.85 2.60 5.15 0.70 6.85 0.80 6.85 0.35z m14.70 -0.45 c4.45 -0.75 7.80 -2.45 7.80 -3.95 0 -0.35 -1.50 -1.25 -3.35 -1.95 l-3.35 -1.30 -3.65 3.60 c-2 2 -3.65 3.80 -3.65 4 0 0.55 1.20 0.50 6.20 -0.40z"/>
  <path d="M132.55 243.80 l-5.25 -1.60 -2.90 -8.70 c-1.60 -4.80 -2.90 -8.85 -2.90 -9.05 0 -0.40 4.50 -6.15 5.15 -6.55 0.35 -0.20 2.55 -0.40 4.90 -0.40 l4.30 0 2.90 4.95 c1.60 2.75 2.80 5.15 2.70 5.40 -0.25 0.50 -0.45 0.45 -7.40 -1.65 -3.10 -0.95 -5.95 -1.70 -6.25 -1.70 -0.30 0 0.60 0.75 1.95 1.65 1.40 0.95 2.45 1.90 2.45 2.15 -0.05 0.25 -0.25 1.60 -0.45 3 l-0.30 2.50 5.50 2.70 c3.05 1.50 5.55 2.95 5.55 3.25 0 0.95 -3.25 5.50 -4 5.55 -0.40 0.05 -3.10 -0.60 -5.95 -1.50z"/>
  <path d="M284.35 243.65 c-0.70 -1.20 -1.90 -5.80 -1.70 -6.35 0.15 -0.35 2.30 -1.65 4.85 -2.80 l4.55 -2.20 -0.15 -3.25 -0.15 -3.25 1.90 -1.10 c1.05 -0.60 1.90 -1.25 1.85 -1.50 -0.10 -0.65 -1.70 -0.35 -7.90 1.65 -3.10 0.95 -5.75 1.65 -5.90 1.55 -0.10 -0.15 1.15 -2.55 2.85 -5.30 l3 -5.10 4.85 0 4.85 0 2.60 3.65 2.55 3.60 -3.05 8.95 -3.10 8.95 -5.75 1.40 c-3.15 0.80 -5.80 1.40 -5.85 1.45 -0.05 0 -0.20 -0.15 -0.30 -0.35z"/>
  <path d="M239.75 232.40 c-3.30 -0.55 -6.15 -1.15 -6.35 -1.35 -0.35 -0.30 18.65 -8.55 19 -8.25 0.35 0.25 -5.65 10.70 -6.15 10.65 -0.25 -0.05 -3.20 -0.50 -6.50 -1.05z"/>
  <path d="M175.65 232.40 c-1.10 -1.45 -5.25 -9.45 -5 -9.75 0.30 -0.30 18.85 7.45 18.85 7.85 0 0.15 -2.40 0.70 -5.35 1.20 -3 0.50 -6 1 -6.70 1.15 -0.70 0.15 -1.50 -0.05 -1.80 -0.45z"/>
  <path d="M323.45 218.30 l-3.25 -4.30 -0.60 -9.15 c-0.30 -5 -0.95 -11.10 -1.35 -13.60 -4.75 -26.90 -18.70 -50.75 -39.50 -67.45 -10.35 -8.35 -23.05 -15.10 -33.90 -18.05 -1.85 -0.50 -3.35 -1.10 -3.35 -1.30 0 -0.65 1.50 -7.65 1.70 -7.80 0.35 -0.35 5.10 1.05 10.90 3.15 15.10 5.55 28.35 14.05 39.75 25.50 18.40 18.50 29.65 42 33.25 69.70 0.75 5.60 0.75 25.45 0.05 26.70 -0.40 0.75 -0.95 0.25 -3.70 -3.40z"/>
  <path d="M74.75 203.90 c-4.50 -1.05 -35.20 -7.40 -36.05 -7.40 -0.45 0 -0.15 -1.75 1.10 -6.95 l1.25 -5.40 3.60 -0.85 c14.30 -3.40 18.35 -4.50 18.25 -4.85 -0.10 -0.20 -4.25 -3.45 -9.25 -7.20 -5.05 -3.70 -9.15 -7.05 -9.15 -7.40 0 -1.20 1.90 -10.90 2.15 -11.15 0.35 -0.35 40.20 7 40.70 7.45 0.25 0.30 -1.45 10.10 -1.85 10.55 -0.25 0.20 -5.50 -0.75 -11.70 -2.20 -6.20 -1.40 -11.55 -2.50 -11.85 -2.40 -0.35 0.10 2.75 2.85 6.85 6.10 4.10 3.30 8.20 6.65 9.10 7.45 1.80 1.75 2.10 3.55 0.65 4.30 -0.50 0.30 -4.70 1.45 -9.35 2.55 -12.40 3 -12.50 3.05 -11.70 3.50 0.40 0.20 1.75 0.55 3 0.75 6.20 0.95 19.30 3.40 19.60 3.70 0.60 0.55 -1.90 9.80 -2.65 9.90 -0.40 0 -1.60 -0.15 -2.70 -0.45z"/>
  <path d="M369.40 197 c-5.80 -1.45 -10.35 -7.10 -11.95 -14.75 -0.35 -1.65 -0.75 -3.20 -0.95 -3.40 -0.20 -0.20 -3.25 0.20 -6.75 0.85 -3.55 0.70 -6.55 1.20 -6.65 1.10 -0.45 -0.45 -2.50 -12.05 -2.20 -12.40 0.20 -0.20 3.10 -0.80 6.50 -1.35 10.55 -1.80 17.55 -3.05 25.95 -4.65 4.45 -0.85 8.45 -1.40 8.90 -1.25 0.40 0.20 0.75 0.85 0.75 1.45 0 0.65 0.70 4.40 1.50 8.40 2.60 12.60 2.50 17.25 -0.45 21.35 -2.80 3.85 -9.50 5.95 -14.65 4.65z m4.35 -12.70 c2.50 -1.05 3.45 -2.80 3.15 -5.85 -0.15 -1.35 -0.45 -2.70 -0.75 -3 -0.25 -0.25 -1.95 -0.15 -4.40 0.30 -6.75 1.25 -6.35 1.05 -6 2.90 0.65 3.05 1.75 4.75 3.65 5.55 2.30 0.95 2.30 0.95 4.35 0.10z"/>
  <path d="M336.30 158.45 c-1.65 -3.80 -3.05 -7.85 -2.80 -8.15 0.25 -0.20 14.40 -6.45 29.90 -13.15 4.75 -2.05 8.90 -3.65 9.20 -3.55 0.75 0.25 4.45 9.80 3.90 10.15 -0.20 0.15 -2.95 1.35 -6.05 2.70 -3.15 1.35 -11.55 5.10 -18.70 8.30 -7.15 3.20 -13.30 5.95 -13.65 6.10 -0.35 0.15 -1.05 -0.75 -1.80 -2.40z"/>
  <path d="M74.45 146.55 c-4.55 -1.60 -5.35 -2.10 -9.10 -5.55 -7.10 -6.50 -8.30 -15.95 -3.25 -26.05 5.55 -11.15 15.80 -15.80 27.05 -12.30 7.25 2.30 12.65 6.65 15.25 12.30 1.85 4.05 2.15 10.55 0.60 15.05 -2.80 8.35 -8.70 14.80 -15.70 17.15 -3.95 1.35 -10.20 1.10 -14.85 -0.60z m15.60 -13.05 c3.40 -1.75 5.10 -5.80 4 -9.50 -0.65 -2.25 -4.20 -5.70 -7.20 -7 -1.15 -0.50 -3.45 -1.20 -5.10 -1.55 -2.75 -0.55 -3.20 -0.50 -5.65 0.55 -1.45 0.65 -3.10 1.80 -3.70 2.60 -1.15 1.60 -1.70 5.10 -1.20 7.15 0.35 1.45 3.85 5.50 5.50 6.35 4.65 2.50 10.05 3.05 13.35 1.40z"/>
  <path d="M329.90 143.15 c-0.40 -0.50 -2.25 -2.95 -4 -5.45 l-3.30 -4.50 1.15 -2.80 c0.60 -1.50 1.60 -4.10 2.15 -5.70 0.60 -1.60 1.50 -4.15 2.10 -5.60 l1.05 -2.70 -1.40 1 c-0.75 0.60 -3.30 2.60 -5.65 4.55 -2.30 1.95 -4.40 3.55 -4.55 3.55 -0.50 0 -7.70 -8.40 -7.70 -8.95 0 -0.20 5.05 -4.55 11.25 -9.55 6.20 -5.05 13.75 -11.25 16.75 -13.80 3.05 -2.50 5.65 -4.50 5.80 -4.40 0.55 0.35 12.30 16.90 13.10 18.50 2.65 5.20 2.15 9.65 -1.55 13.75 -3.25 3.60 -6.65 5.45 -10.10 5.45 -1.65 0 -3.60 -0.40 -4.90 -1 l-2.15 -0.95 -0.40 1.10 c-1.35 3.70 -5.05 14.45 -5.60 16.25 -0.70 2.35 -0.95 2.50 -2.05 1.25z m15.95 -28.90 c1.80 -2.05 1.30 -5.55 -1.25 -8.70 l-1 -1.20 -3.75 3.10 c-2.10 1.70 -3.95 3.30 -4.10 3.55 -0.45 0.75 1.85 3.55 3.50 4.30 2.20 1.05 5.25 0.55 6.60 -1.05z"/>
  <path d="M106.15 100.95 c-5.15 -7.70 -10.45 -15.55 -11.80 -17.35 -1.30 -1.85 -2.30 -3.60 -2.25 -3.95 0.10 -0.30 2.15 -2.15 4.55 -4.10 l4.40 -3.55 1.85 0.75 c8.60 3.35 24.10 9.05 24.10 8.85 0 -0.15 -0.30 -0.65 -0.70 -1.05 -1.20 -1.40 -12.30 -18 -12.30 -18.40 0 -0.50 7.15 -6.55 8.15 -6.95 0.45 -0.15 4.70 5.80 12.25 17.15 6.40 9.60 11.60 17.65 11.55 17.90 -0.05 0.95 -8.05 6.85 -8.90 6.60 -0.45 -0.15 -3.40 -1.20 -6.55 -2.30 -3.15 -1.15 -8.55 -3.10 -12 -4.30 -3.45 -1.15 -6.65 -2.30 -7.10 -2.50 -0.45 -0.20 2.20 4.20 5.90 9.70 3.70 5.50 6.70 10.20 6.70 10.45 0 0.25 -1.30 1.45 -2.85 2.70 -1.60 1.25 -3.50 2.75 -4.25 3.35 l-1.35 1.10 -9.40 -14.10z"/>
  <path d="M296.50 104.95 c-6.25 -1.20 -12.80 -6.65 -16.10 -13.30 -2.20 -4.45 -2.55 -10.30 -0.95 -15.50 2.30 -7.50 7.25 -13.40 13.40 -15.90 4.50 -1.85 10.85 -1.95 15.30 -0.25 4.60 1.75 8.75 4.85 11.15 8.35 1.90 2.75 5.10 10.90 4.50 11.50 -0.30 0.30 -6.55 1.10 -8.85 1.15 -1.80 0 -1.85 -0.05 -2.05 -2.20 -0.40 -3.60 -1.85 -5.90 -4.60 -7.35 -5.05 -2.75 -9.05 -2.20 -12.95 1.65 -4.95 4.95 -6.95 12.45 -4.40 16.55 2.15 3.45 5.40 5.35 9.35 5.35 1.25 0 1.80 -0.40 2.90 -2 0.70 -1.10 1.30 -2.20 1.30 -2.45 0 -0.25 -1.55 -1.40 -3.50 -2.60 -1.90 -1.20 -3.50 -2.45 -3.50 -2.75 0 -0.60 3.85 -6.70 4.25 -6.70 0.40 0 13.30 9.50 14.70 10.80 l1.20 1.10 -4.15 6.70 c-2.25 3.65 -4.60 7.05 -5.10 7.55 -0.80 0.70 -1.85 0.85 -5.35 0.80 -2.35 -0.05 -5.30 -0.25 -6.55 -0.50z"/>
  <path d="M156.30 86.55 c-0.75 -1.15 -12.70 -40.85 -12.40 -41.10 0.75 -0.70 10.75 -3.50 11.05 -3.10 0.20 0.20 0.85 2.45 1.50 4.90 2.35 9.55 3.20 12.30 3.55 11.90 0.20 -0.20 1.80 -4.65 3.50 -9.90 1.70 -5.20 3.35 -9.70 3.60 -10 0.55 -0.60 12 -4.25 12.45 -3.95 0.20 0.10 -0.50 2.40 -1.50 5.05 -6.10 16 -7.15 19.20 -6.55 19.90 0.35 0.40 5 4.05 10.40 8.10 5.40 4.10 10.15 7.65 10.55 8 0.45 0.30 0.65 0.70 0.50 0.85 -0.15 0.15 -3.15 1.15 -6.70 2.25 -7.65 2.35 -5.80 3.05 -16.40 -5.85 -4.05 -3.40 -7.50 -6.10 -7.65 -6 -0.10 0.15 0.80 3.60 2.05 7.65 1.25 4.10 2.20 7.75 2.15 8.15 -0.10 0.40 -2.15 1.35 -4.65 2.15 -5.05 1.60 -5.10 1.60 -5.45 1z"/>
  <path d="M252.75 82.90 c-2.75 -0.85 -5.05 -1.60 -5.15 -1.65 -0.15 -0.15 2.10 -7.85 4 -13.50 0.60 -1.75 0.90 -3.80 0.80 -5 -0.15 -1.10 -1.85 -7.80 -3.85 -14.95 -1.95 -7.10 -3.50 -13 -3.35 -13.15 0.10 -0.10 2.90 0.65 6.15 1.65 l6 1.85 1.70 7.70 c0.95 4.25 1.90 8 2.10 8.30 0.25 0.40 2.40 -1.50 6.25 -5.55 l5.85 -6.15 5.25 1.60 c2.90 0.85 5.45 1.65 5.65 1.80 0.25 0.15 -3.30 4 -7.85 8.60 -4.55 4.55 -9.15 9.30 -10.25 10.55 -2 2.25 -2.40 3.25 -6 16 -0.50 1.90 -1.20 3.30 -1.60 3.35 -0.40 0.05 -2.95 -0.60 -5.70 -1.45z"/>
  <path d="M203.35 76.15 l-2.45 -0.20 0.30 -5.10 c0.15 -2.80 0.40 -9.35 0.55 -14.60 0.15 -5.20 0.40 -12.70 0.55 -16.65 l0.30 -7.15 12.95 0.10 12.95 0.10 0 5.20 0 5.15 -6.95 0 -6.90 0 -0.30 3.10 c-0.20 2.15 -0.10 3.25 0.30 3.50 0.35 0.20 3.35 0.40 6.70 0.40 l6.10 0 -0.25 3.65 c-0.45 6.15 0.25 5.60 -7.05 5.60 l-6.40 0 -0.15 3.15 c-0.10 2.20 0.05 3.20 0.50 3.35 0.35 0.15 3.70 0.30 7.40 0.40 l6.75 0.10 -0.10 4.40 c0 2.40 -0.20 4.70 -0.35 5.10 -0.20 0.65 -1.95 0.75 -11.15 0.65 -6 -0.05 -12 -0.15 -13.30 -0.25z"/>
 </g>
 <g fill="#c62c20">
  <path d="M198 381.75 c-1.60 -2.55 -1.75 -4.35 -0.55 -7 0.60 -1.30 1.05 -2.55 1.05 -2.80 0 -1 -1.75 -0.30 -3.90 1.55 -4.45 3.95 -13.10 6.95 -14.85 5.20 -0.35 -0.35 -0.75 -0.55 -0.90 -0.40 -0.15 0.15 -0.55 -0.25 -0.90 -0.90 -0.70 -1.25 -0.65 -4.25 0 -5.15 0.25 -0.25 0.60 -1.05 0.80 -1.70 0.75 -2.50 4.05 -6.95 8.10 -10.90 2.30 -2.30 3.90 -4.15 3.50 -4.15 -0.40 0 -2.40 1.20 -4.40 2.65 -10.10 7.25 -13.15 9.35 -13.65 9.35 -0.30 0 -1.60 1.10 -2.95 2.45 -2.95 3.10 -6.60 5.60 -7.60 5.25 -1.10 -0.45 -1.85 -3.70 -1.25 -5.70 0.30 -0.95 0.50 -1.90 0.50 -2.10 0 -0.65 -1.45 -0.45 -3.15 0.45 -1.55 0.80 -5.70 1.95 -8.45 2.40 -1.90 0.30 -3.40 1.15 -3.40 2 0 0.40 -0.50 1 -1.10 1.30 -0.65 0.35 -2.15 1.40 -3.40 2.45 -5.45 4.45 -10.55 7 -13.95 7 -2.10 0 -5.40 -2.50 -6.40 -4.90 -0.55 -1.30 -0.60 -2.05 -0.15 -3.35 0.65 -1.90 3.90 -5.10 5.60 -5.50 3.55 -0.75 7.10 -1.40 10.40 -1.85 2.05 -0.25 4.20 -0.55 4.75 -0.65 1 -0.20 7.75 -6.60 7.75 -7.35 0 -0.75 -1 -0.40 -4.05 1.60 -2.80 1.80 -8.60 4 -10.55 4 -0.45 0 -1.05 -0.35 -1.40 -0.75 -0.35 -0.40 -0.90 -0.75 -1.25 -0.75 -0.30 0 -1 -0.45 -1.45 -0.95 -1.30 -1.45 -0.65 -5.45 1.25 -7.85 1.60 -2.05 1.75 -2.50 0.85 -2.85 -0.45 -0.15 -0.35 -0.35 0.30 -0.60 0.90 -0.40 1.90 -1.25 6.35 -5.55 2.40 -2.25 9.50 -6.10 13.50 -7.25 1.20 -0.35 2.65 -0.95 3.20 -1.30 1.45 -0.95 2.75 -0.80 5.80 0.70 2.90 1.40 3.55 2.05 3.25 3 -0.15 0.30 0.05 0.95 0.40 1.45 0.65 0.85 0.75 0.85 2.45 0.05 0.95 -0.50 2.15 -0.70 2.55 -0.55 0.95 0.35 2.30 2.75 2.30 4 0 0.85 -14 14.70 -15.45 15.25 -0.45 0.20 -1.20 0.80 -1.70 1.35 -0.85 0.95 -0.85 1 0.45 1.25 2.10 0.40 6.90 -1.75 8.80 -3.95 0.90 -1.05 2.20 -2.50 2.90 -3.20 0.70 -0.75 2.25 -2.50 3.45 -3.90 1.25 -1.45 2.45 -2.60 2.65 -2.60 0.50 0 2.90 -2.45 2.90 -2.95 0 -0.40 11.15 -10.50 12.40 -11.25 4.45 -2.60 4.15 -2.50 5.95 -1.55 1.80 1 2.45 2.40 1.80 4.05 -0.40 1.10 -7.90 7.70 -8.70 7.70 -0.25 0 -0.45 0.25 -0.45 0.60 0 1 -2.55 3.35 -3.30 3.05 -0.50 -0.20 -0.60 0 -0.40 0.55 0.20 0.50 -0.10 0.95 -1 1.35 -0.70 0.35 -1.75 1.35 -2.30 2.30 -0.50 0.90 -1.25 1.65 -1.60 1.65 -0.85 0 -4.65 3.90 -4.25 4.35 0.20 0.15 0.65 0 1.05 -0.30 0.40 -0.35 1 -0.50 1.25 -0.35 0.25 0.20 0.60 0.10 0.75 -0.15 0.60 -0.95 10.90 -7.65 13.95 -9.10 3.50 -1.65 4.75 -1.75 6.85 -0.70 2 1.05 2.50 2.15 2.15 4.80 -0.35 2.55 -0.90 3.50 -1.95 3.10 -0.40 -0.15 -0.85 0.20 -1.15 0.90 -0.45 1.30 -3.20 3.95 -4.05 3.95 -0.25 0 -0.50 0.30 -0.50 0.70 0 0.35 -0.55 1.25 -1.20 1.95 -0.65 0.70 -1.70 2 -2.35 2.95 -0.60 0.90 -1.45 1.85 -1.85 2.05 -1.05 0.70 0.25 1.80 1.85 1.60 3.40 -0.40 7.80 -3.90 10.90 -8.55 0.70 -1.05 1.95 -2.65 2.75 -3.50 1.65 -1.75 1.60 -3.40 -0.10 -3.85 -0.85 -0.20 -0.95 -0.55 -0.70 -1.95 0.45 -2.25 0.55 -2.35 3.50 -2.45 l2.55 -0.10 3.80 -5.10 c6 -7.90 7.25 -8.65 10.45 -6.40 2.20 1.50 2.25 1.70 0.90 2.55 -0.55 0.35 -1 1.10 -1 1.65 0 0.60 -0.40 1.15 -1 1.30 -0.55 0.15 -1 0.50 -1 0.75 0 0.30 -0.60 1.20 -1.30 2.05 -0.95 1.15 -1.15 1.60 -0.65 1.80 0.40 0.10 0.85 0.40 1 0.65 0.15 0.25 0.85 0.20 1.65 -0.10 1.20 -0.45 3.30 0 3.30 0.70 0 0.10 -0.95 1.10 -2.05 2.25 -1.85 1.85 -2.30 2.05 -4.50 2.05 -3.05 0 -4.95 0.70 -4.95 1.90 0 0.45 -0.30 1.30 -0.70 1.85 -0.35 0.55 -1.15 1.80 -1.70 2.80 -0.55 1 -1.30 2.35 -1.70 3 -0.35 0.65 -1.05 1.75 -1.50 2.40 -0.50 0.65 -0.90 1.60 -0.90 2.10 0 0.50 -0.45 1.65 -0.95 2.50 -1.20 1.95 -0.90 2.80 1 3.20 2.10 0.50 6.80 -2.70 11.65 -7.85 l3.80 -4.05 1.25 1.15 c1.15 1.10 1.20 1.20 0.35 2.20 -3.10 3.95 -7.10 8 -8.50 8.65 -0.95 0.45 -1.85 1.30 -2.10 1.90 -0.45 1.15 -2.15 2.50 -4.75 3.75 -0.80 0.40 -1.95 1.10 -2.50 1.55 -0.60 0.50 -2.20 0.90 -4.15 1.05 -3.05 0.20 -3.15 0.20 -4.10 -1.35z m-64.45 -6.70 c3.75 -2.25 4.40 -3.55 1.85 -3.55 -0.95 0 -1.95 0.25 -2.25 0.55 -0.30 0.30 -1.45 0.60 -2.55 0.65 -1.10 0.05 -2.40 0.40 -2.80 0.75 -0.80 0.70 -1.10 2.60 -0.45 3.20 0.80 0.85 3.20 0.20 6.20 -1.60z m14.70 -19.75 c6.30 -3.55 11.50 -7.20 12.50 -8.70 0.50 -0.85 1.15 -1.40 1.35 -1.30 0.20 0.15 0.40 -0.20 0.40 -0.80 0 -1.50 -2.15 -2.20 -4.45 -1.45 -4 1.30 -13.30 7.70 -16.85 11.55 -2.15 2.35 -2.30 2.70 -1.45 3.60 0.70 0.70 1 0.70 2.90 -0.05 1.15 -0.50 3.70 -1.75 5.60 -2.85z"/>
  <path d="M114.65 359.10 c-3 -0.30 -4.75 -4.20 -3.70 -8.35 0.85 -3.30 3.25 -8.25 5.05 -10.25 0.80 -0.90 1.50 -1.90 1.50 -2.15 0 -0.30 1.05 -1.45 2.30 -2.65 1.25 -1.20 2.15 -2.35 2 -2.60 -0.15 -0.25 -1.25 -0.60 -2.40 -0.75 -1.20 -0.20 -4.50 -1.10 -7.40 -2.05 -3.30 -1.10 -5.45 -1.55 -5.80 -1.25 -0.30 0.25 -0.70 0.30 -0.85 0.10 -0.45 -0.40 -3.85 2.90 -3.85 3.75 0 0.30 -0.35 0.60 -0.75 0.60 -0.45 0 -0.90 0.35 -1.05 0.75 -0.45 1.15 -4.55 5.05 -5.15 4.85 -0.30 -0.10 -0.55 0.15 -0.55 0.60 0 0.40 -1.25 1.75 -2.80 2.90 -4.15 3.20 -5.55 3.95 -7.80 4.50 -1.80 0.40 -2.20 0.30 -3.20 -0.65 -1.50 -1.45 -1.90 -3.30 -1.15 -6.15 0.50 -2 1.20 -2.90 4.45 -5.85 2.10 -1.95 4.75 -4.10 5.80 -4.85 1.05 -0.70 2.25 -1.60 2.65 -2 0.40 -0.35 1.60 -1.25 2.65 -1.90 1.05 -0.70 2.05 -1.55 2.20 -1.95 0.15 -0.40 -0.35 -1.50 -1.10 -2.50 -1.10 -1.45 -1.25 -2 -0.85 -2.65 0.60 -1 1.40 -1 5.10 0.05 1.50 0.40 3.10 0.60 3.50 0.45 0.45 -0.15 3 -2.05 5.75 -4.20 2.70 -2.15 5.10 -3.90 5.30 -3.90 0.20 0 0.75 -0.55 1.20 -1.25 l0.80 -1.20 -4.65 -2.50 c-6.45 -3.40 -7.30 -4.20 -7.10 -6.15 0.15 -0.85 0.45 -1.80 0.70 -2.05 1.05 -1.05 4.80 -0.90 8.80 0.35 7.10 2.25 10.95 3.60 13.75 4.95 1.50 0.70 4.50 1.95 6.65 2.80 2.10 0.90 5.85 2.65 8.30 4 4.40 2.40 11.55 7.75 11.55 8.65 0 1.65 -1.10 2.40 -3.50 2.40 -3.25 0 -13.20 -3.35 -19.50 -6.50 -1.60 -0.80 -3.45 -1.50 -4 -1.50 -0.55 0 -1.85 0.75 -2.85 1.65 -2.60 2.20 -9.45 7.35 -9.85 7.35 -0.75 0 -2.25 1.80 -1.90 2.30 0.60 0.95 9.75 4.70 11.45 4.70 0.60 0 1.60 0.75 2.35 1.75 0.75 0.95 1.20 1.75 1 1.75 -0.15 0 0.15 0.40 0.70 0.90 1.50 1.20 1.75 5.10 0.35 5.10 -0.40 0 -0.75 0.30 -0.75 0.70 0 0.35 -0.40 0.80 -0.90 0.90 -0.45 0.15 -2.30 2.60 -4.05 5.45 -1.75 2.85 -3.35 5.30 -3.60 5.35 -0.70 0.30 -0.50 2.10 0.25 2.40 1.35 0.50 4.65 -0.80 8.45 -3.35 3.95 -2.70 5.35 -2.90 5.35 -0.80 0 1.80 -4.70 5.85 -10 8.65 -1.80 0.95 -6.05 1.55 -8.85 1.30z"/>
  <path d="M132.60 329.55 c-2.75 -0.45 -3.70 -1.70 -3.35 -4.30 0.65 -4.80 6.85 -5.90 9.10 -1.60 1.05 1.95 -1.10 6.45 -2.95 6.30 -0.35 -0.05 -1.60 -0.25 -2.80 -0.40z"/>
  <path d="M202.90 197.80 c-0.70 -0.85 -2.95 -3.40 -5.10 -5.65 -2.10 -2.25 -3.65 -4.20 -3.40 -4.35 0.25 -0.15 1.30 0.05 2.40 0.45 1.75 0.65 3.70 0.95 3.70 0.65 0.05 -0.75 3.50 -9.50 5.70 -14.40 2.40 -5.35 2.80 -6.70 2.80 -9.30 0 -3.25 -0.65 -5.70 -2 -7.70 -3.55 -5.05 -5.60 -12.85 -4.65 -17.50 0.60 -3.15 1.65 -2.90 2.70 0.65 0.90 3 3.25 7.15 5.40 9.50 0.65 0.75 1.05 1.35 0.75 1.35 -0.25 0 -0.05 0.25 0.50 0.55 1.40 0.85 3.80 6.55 4.15 9.95 0.35 3.70 -0.25 6 -3.60 13.75 -3.90 8.95 -5.10 12.95 -5.50 18.05 -0.30 4.10 -0.45 4.65 -1.45 5.10 -0.95 0.45 -1.30 0.25 -2.40 -1.10z"/>
  <path d="M213.70 190.85 c-0.40 -1.10 0.45 -4.20 2.80 -10.35 5.75 -15 5.80 -22.85 0.05 -30.75 -4.10 -5.60 -7.10 -11.65 -7.75 -15.75 -0.25 -1.80 0.35 -5.45 1.20 -7.25 0.25 -0.55 1.25 -2.80 2.15 -4.95 2.10 -5.05 3.15 -5.60 2.60 -1.50 -0.55 4.35 -0.35 9.30 0.45 11.50 0.35 1.10 1.35 3 2.25 4.30 0.85 1.25 1.55 2.50 1.55 2.75 0 0.25 0.55 1 1.25 1.65 0.70 0.65 1.25 1.40 1.25 1.70 0 0.30 0.75 1.40 1.65 2.45 3.65 4.25 4.50 5.50 6.15 9.40 2.05 4.65 2.05 6 -0.10 12.45 -1.15 3.50 -3.10 6.80 -9.10 15.45 -1.20 1.70 -3.05 4.60 -4.10 6.45 -1.50 2.60 -2 3.15 -2.30 2.45z"/>
 </g>
</svg>